<?xml version="1.0"?>
<svg version="1.1" xmlns="http://www.w3.org/2000/svg" width="208" height="130" style=""><path fill="#d9713d" d="M53.5,53.3c20,0,31.5,13.2,31.5,35.5c0,22.5-13.5,37.5-33.5,37.5s-31-12.5-31-36c0-23,12.7-37,33-37z M53,65.8c-10,0-15.5,6.2-15.5,24c0,16.5,4.5,24,14.5,24s16-6.5,16-24.5c0-16.5-5-23.5-15-23.5z M113.851,103.3l1.5,8.4s4,2.1,9.8,2.1c6.4,0,12.1-2.8,12.1-8.1c0-11.7-33.8-6.5-33.8-31.2c0-13.8,10.9-21.2,25.4-21.2c11.3,0,22,4,22,4l-0.5,18.2l-9.2,0l-2.5-8.5s-4.5-1.5-8.8-1.5c-7.1,0-10.6,3.1-10.6,7.1c0,11.6,33.7,7,33.7,30.5c0,15-11.6,23.2-27,23.2c-11.3,0-22.3-3.8-22.3-3.8l0-19.2l10.2,0z"/><path fill="#" d=""/></svg>
